<?xml version="1.0" encoding="utf-8"?>
<!-- Generator: Adobe Illustrator 20.1.0, SVG Export Plug-In . SVG Version: 6.00 Build 0)  -->
<svg version="1.1" id="Layer_5" xmlns="http://www.w3.org/2000/svg" xmlns:xlink="http://www.w3.org/1999/xlink" x="0px" y="0px"
	 viewBox="0 0 89.6 72.2" style="enable-background:new 0 0 89.6 72.2;" xml:space="preserve">
<style type="text/css">
	.st0{fill:none;stroke:#FFFFFF;stroke-width:3.3133;stroke-miterlimit:10;}
	.st1{fill:none;stroke:#FFFFFF;stroke-width:2.922;stroke-linecap:round;stroke-linejoin:round;stroke-miterlimit:10;}
	.st2{fill:none;stroke:#FFFFFF;stroke-width:2.9223;stroke-linecap:round;stroke-miterlimit:10;}
	.st3{fill:none;stroke:#FFFFFF;stroke-width:3.3133;stroke-linecap:round;stroke-linejoin:round;stroke-miterlimit:10;}
</style>
<g>
	<line class="st0" x1="35.4" y1="69.1" x2="35.4" y2="14.7"/>
	<line class="st0" x1="19" y1="64.4" x2="19" y2="23.8"/>
	<polyline class="st1" points="41.8,22.3 35.5,14.9 35.4,14.9 29.1,22.3 	"/>
	<polyline class="st2" points="29.1,34.2 35.4,26.8 35.5,26.8 41.8,34.2 	"/>
	<polyline class="st2" points="41.8,46.1 35.5,38.6 35.4,38.6 29.1,46.1 	"/>
	<polyline class="st2" points="41.8,57.9 35.5,50.5 35.4,50.5 29.1,57.9 	"/>
	<polyline class="st1" points="12.5,31.3 18.9,23.9 18.9,23.9 25.3,31.3 	"/>
	<polyline class="st2" points="25.3,43.2 18.9,35.7 18.9,35.7 12.5,43.2 	"/>
	<polyline class="st2" points="25.3,55 18.9,47.6 18.9,47.6 12.5,55 	"/>
	<line class="st0" x1="52" y1="64.4" x2="52" y2="23.8"/>
	<polyline class="st1" points="58.3,31.3 51.9,23.9 51.9,23.9 45.5,31.3 	"/>
	<polyline class="st2" points="58.3,43.2 51.9,35.7 51.9,35.7 45.5,43.2 	"/>
	<polyline class="st2" points="58.3,55 51.9,47.6 51.9,47.6 45.5,55 	"/>
	<path class="st3" d="M35.4,2.8h51.9c0,0-10.6,5.4-14.5,13.4C69,24.2,68.6,36,68.6,36c0,18.3-14.8,33.1-33.1,33.1
		C17.1,69.1,2.3,54.3,2.3,36C2.3,17.7,17.1,2.8,35.4,2.8z"/>
</g>
</svg>
